<svg width="35" height="35" viewBox="0 0 35 35" fill="none" xmlns="http://www.w3.org/2000/svg">
<g clip-path="url(#clip0_336_1320)">
<path d="M13.125 35H1.45833C1.07156 35 0.700627 34.8464 0.427136 34.5729C0.153645 34.2994 0 33.9285 0 33.5417C0 33.1549 0.153645 32.784 0.427136 32.5105C0.700627 32.237 1.07156 32.0833 1.45833 32.0833H13.125C13.5118 32.0833 13.8827 32.237 14.1562 32.5105C14.4297 32.784 14.5833 33.1549 14.5833 33.5417C14.5833 33.9285 14.4297 34.2994 14.1562 34.5729C13.8827 34.8464 13.5118 35 13.125 35Z" fill="white"/>
<path d="M10.2083 29.1667H1.45833C1.07156 29.1667 0.700627 29.013 0.427136 28.7395C0.153645 28.466 0 28.0951 0 27.7083C0 27.3216 0.153645 26.9506 0.427136 26.6771C0.700627 26.4036 1.07156 26.25 1.45833 26.25H10.2083C10.5951 26.25 10.966 26.4036 11.2395 26.6771C11.513 26.9506 11.6667 27.3216 11.6667 27.7083C11.6667 28.0951 11.513 28.466 11.2395 28.7395C10.966 29.013 10.5951 29.1667 10.2083 29.1667Z" fill="white"/>
<path d="M7.29167 23.3333H1.45833C1.07156 23.3333 0.700627 23.1797 0.427136 22.9062C0.153645 22.6327 0 22.2618 0 21.875C0 21.4882 0.153645 21.1173 0.427136 20.8438C0.700627 20.5703 1.07156 20.4167 1.45833 20.4167H7.29167C7.67844 20.4167 8.04937 20.5703 8.32286 20.8438C8.59635 21.1173 8.75 21.4882 8.75 21.875C8.75 22.2618 8.59635 22.6327 8.32286 22.9062C8.04937 23.1797 7.67844 23.3333 7.29167 23.3333Z" fill="white"/>
<path d="M18.9583 34.9344C18.5716 34.9516 18.1938 34.8145 17.9081 34.5531C17.6225 34.2918 17.4523 33.9277 17.4351 33.541C17.4179 33.1542 17.555 32.7764 17.8164 32.4907C18.0777 32.2051 18.4418 32.0349 18.8286 32.0177C21.5884 31.7652 24.2191 30.7315 26.4127 29.0377C28.6062 27.344 30.2717 25.0602 31.2141 22.454C32.1564 19.8478 32.3367 17.027 31.7337 14.322C31.1307 11.6171 29.7695 9.1399 27.8094 7.18071C25.8493 5.22151 23.3715 3.86138 20.6662 3.25964C17.961 2.65789 15.1403 2.83944 12.5345 3.78302C9.92871 4.7266 7.64574 6.39314 5.95297 8.58745C4.2602 10.7818 3.22773 13.413 2.97647 16.1729C2.94166 16.5582 2.75525 16.9138 2.45824 17.1616C2.16123 17.4093 1.77795 17.529 1.39272 17.4942C1.0075 17.4594 0.651876 17.273 0.404093 16.9759C0.156311 16.6789 0.0366641 16.2957 0.0714737 15.9104C0.478187 11.4236 2.59965 7.26645 5.99425 4.30438C9.38884 1.34231 13.795 -0.196475 18.2956 0.00834477C22.7962 0.213164 27.0444 2.14581 30.1559 5.40397C33.2674 8.66213 35.0025 12.9948 35 17.5C35.0224 21.8726 33.3979 26.0934 30.4499 29.3227C27.5018 32.5521 23.4461 34.5534 19.0896 34.9286C19.0458 34.9329 19.0006 34.9344 18.9583 34.9344Z" fill="white"/>
<path d="M17.5 8.75C17.1132 8.75 16.7423 8.90365 16.4688 9.17714C16.1953 9.45063 16.0416 9.82156 16.0416 10.2083V17.5C16.0417 17.8867 16.1954 18.2576 16.4689 18.531L20.8439 22.906C21.119 23.1717 21.4873 23.3187 21.8697 23.3154C22.2521 23.312 22.6178 23.1587 22.8882 22.8883C23.1586 22.6179 23.312 22.2521 23.3153 21.8698C23.3186 21.4874 23.1716 21.119 22.906 20.844L18.9583 16.8963V10.2083C18.9583 9.82156 18.8046 9.45063 18.5312 9.17714C18.2577 8.90365 17.8867 8.75 17.5 8.75Z" fill="white"/>
</g>
<defs>
<clipPath id="clip0_336_1320">
<rect width="35" height="35" fill="white"/>
</clipPath>
</defs>
</svg>
