<svg width="35" height="35" viewBox="0 0 35 35" fill="none" xmlns="http://www.w3.org/2000/svg">
<path d="M11.9214 32.7357C14.9878 35.7354 19.8851 35.7476 22.9664 32.7633L28.7732 27.3972C35.0637 21.1905 35.1316 11.0595 28.9249 4.76909C22.7181 -1.52134 12.5872 -1.58929 6.29675 4.61747C6.24589 4.66764 6.19531 4.71823 6.14513 4.76909C-0.10312 11.0183 -0.1023 21.1495 6.14691 27.3978C6.15983 27.4107 6.17282 27.4236 6.18581 27.4365L11.9214 32.7357ZM8.20193 6.82595C13.3033 1.70208 21.5925 1.68382 26.7164 6.78521C31.8403 11.8866 31.8585 20.1758 26.7571 25.2997L20.9619 30.6556C18.9825 32.5186 15.8914 32.5071 13.9259 30.6294L8.20193 25.3404C3.08933 20.2278 3.08926 11.9387 8.20179 6.82602C8.20186 6.82602 8.20193 6.82595 8.20193 6.82595ZM10.1861 16.0832C10.1861 15.2798 10.8373 14.6286 11.6407 14.6286H16.0045V10.2647C16.0045 9.46134 16.6558 8.81008 17.4592 8.81008C18.2625 8.81008 18.9138 9.46134 18.9138 10.2647V14.6286H23.2776C24.081 14.6286 24.7323 15.2798 24.7323 16.0832C24.7323 16.8865 24.081 17.5378 23.2776 17.5378H18.9138V21.9017C18.9138 22.705 18.2625 23.3563 17.4592 23.3563C16.6558 23.3563 16.0045 22.705 16.0045 21.9017V17.5378H11.6407C10.8373 17.5378 10.1861 16.8865 10.1861 16.0832Z" fill="white"/>
</svg>
