<svg width="35" height="35" viewBox="0 0 35 35" fill="none" xmlns="http://www.w3.org/2000/svg">
<g clip-path="url(#clip0_336_1318)">
<path d="M26.25 17.5C26.25 18.305 25.5967 18.9583 24.7917 18.9583C23.9867 18.9583 23.3333 18.305 23.3333 17.5C23.3333 16.695 23.9867 16.0417 24.7917 16.0417C25.5967 16.0417 26.25 16.695 26.25 17.5ZM10.2083 7.29167C11.0133 7.29167 11.6667 6.63979 11.6667 5.83333C11.6667 4.22479 12.9748 2.91667 14.5833 2.91667C16.1919 2.91667 17.5 4.22479 17.5 5.83333C17.5 6.63979 18.1533 7.29167 18.9583 7.29167C19.7633 7.29167 20.4167 6.63979 20.4167 5.83333C20.4167 2.61625 17.8004 0 14.5833 0C11.3662 0 8.74999 2.61625 8.74999 5.83333C8.74999 6.63979 9.40332 7.29167 10.2083 7.29167ZM35 18.9583V21.875C35 23.4879 33.9092 24.4694 32.7133 24.7246C31.7494 27.1367 29.9833 29.174 27.7083 30.4908V30.625C27.7083 33.0371 25.7454 35 23.3333 35C21.4317 35 19.81 33.7808 19.2077 32.0833H15.7908C15.1885 33.7808 13.5669 35 11.6652 35C9.25311 35 7.2902 33.0371 7.2902 30.625V30.5098C3.44749 28.2946 1.19145 24.1267 1.48165 19.6438C1.57353 18.2175 1.93374 16.8627 2.50978 15.6246C1.02665 14.9231 -0.00292969 13.4138 -0.00292969 11.6667C-0.00292969 9.25458 1.95999 7.29167 4.37207 7.29167C5.17707 7.29167 5.8304 7.94354 5.8304 8.75C5.8304 9.55646 5.17707 10.2083 4.37207 10.2083C3.56707 10.2083 2.91374 10.8617 2.91374 11.6667C2.91374 12.3827 3.4329 12.9792 4.11395 13.1017C6.33207 10.4431 9.7329 8.75 13.51 8.75H21.331C22.4 6.59458 24.3965 5.08667 27.0579 4.45375C27.9198 4.25104 28.8123 4.44938 29.5094 4.99917C30.2167 5.55917 30.6235 6.39625 30.6235 7.2975V12.7152C31.5102 13.7229 32.2189 14.875 32.7119 16.1087C33.9092 16.364 34.9985 17.3454 34.9985 18.9583H35ZM32.0833 18.9583H31.6546C31.01 18.9583 30.4412 18.534 30.2575 17.9156C29.8579 16.574 29.12 15.3256 28.1239 14.3033C27.8571 14.0306 27.7083 13.6646 27.7083 13.2854V7.2975C26.2864 7.63583 24.4052 8.50792 23.6775 10.7027C23.4719 11.3196 22.871 11.744 22.2337 11.7002C22.1346 11.6958 13.5129 11.6681 13.5129 11.6681C8.69603 11.6681 4.68999 15.2542 4.39395 19.8333C4.16061 23.434 6.11624 26.7633 9.37707 28.3135C9.88603 28.5556 10.2083 29.069 10.2083 29.6304V30.6265C10.2083 31.4315 10.8631 32.0848 11.6667 32.0848C12.4702 32.0848 13.125 31.4315 13.125 30.6265C13.125 29.8215 13.7783 29.1681 14.5833 29.1681H20.4167C21.2217 29.1681 21.875 29.82 21.875 30.6265C21.875 31.4329 22.5298 32.0848 23.3333 32.0848C24.1369 32.0848 24.7917 31.4315 24.7917 30.6265V29.6144C24.7917 29.0529 25.1139 28.541 25.6215 28.299C27.8702 27.2256 29.5589 25.2642 30.2575 22.9206C30.4412 22.3023 31.01 21.8779 31.6546 21.8779H32.0833V18.9613V18.9583Z" fill="white"/>
</g>
<defs>
<clipPath id="clip0_336_1318">
<rect width="35" height="35" fill="white"/>
</clipPath>
</defs>
</svg>
