<svg width="96" height="100" viewBox="0 0 96 100" fill="none" xmlns="http://www.w3.org/2000/svg">
<path d="M27.1864 3.1327C26.1786 3.30814 24.9944 3.74673 24.2259 4.24799C23.0669 4.98734 22.3992 6.02744 22.1724 7.43095C21.5677 11.2029 24.944 15.5262 30.8399 18.5337C31.9989 19.1227 32.1249 19.2104 31.9737 19.3984C31.8855 19.5111 31.6083 19.862 31.3564 20.1753C29.9832 21.8796 28.7612 24.2104 28.3581 25.9397C28.0305 27.2555 28.0179 29.0976 28.2951 30.3633C28.547 31.4911 29.3911 33.2831 30.2604 34.5487C31.5831 36.4911 35.2618 39.8244 38.2853 41.8169C40.6663 43.3959 48.3259 47.4811 49.5101 47.8194C49.9258 47.9322 47.7967 45.7016 42.8205 40.7893C40.7293 38.7217 38.4994 36.441 37.8695 35.7142C35.1736 32.5939 34.002 29.9372 34.1783 27.3808C34.3421 24.9999 35.6019 22.4435 37.8695 19.8495L38.6506 18.9598L37.5546 18.4961C36.194 17.9322 33.9642 16.7041 32.8933 15.9397C29.5549 13.5713 27.9423 11.1277 28.1187 8.65902C28.2069 7.55626 28.61 6.654 29.3533 5.96478C30.5249 4.87456 32.0115 4.39837 34.6319 4.27305L36.3452 4.19786L34.8334 3.79686C34.002 3.5713 32.78 3.30814 32.1249 3.19536C30.8651 2.99486 28.2069 2.9698 27.1864 3.1327Z" fill="#00529C"/>
<path d="M41.6237 4.39841C41.0568 4.46107 40.3765 4.54879 40.112 4.61145C39.6711 4.69917 39.7466 4.72423 40.8175 4.81195C47.5574 5.32573 57.5476 7.46859 64.7033 9.9122C68.5078 11.2155 73.8242 13.5588 73.8242 13.9222C73.8242 14.0475 69.1755 26.3157 69.1 26.416C69.0748 26.441 68.4197 26.2531 67.6386 26.0024C63.6828 24.7368 61.1506 24.5739 58.5302 25.451C56.565 26.1027 55.2296 27.0801 54.2217 28.5839C51.8911 32.0801 52.5336 37.3182 55.6831 40.4636C57.2075 41.9924 58.82 42.7568 61.0624 43.02L62.2214 43.1578L62.2844 43.6089C62.3222 43.847 62.3852 45.3007 62.4356 46.817L62.5112 49.5989L61.8057 49.8621C60.2436 50.4385 58.0263 50.2881 55.5445 49.4235C54.8642 49.1854 54.2721 48.9974 54.2469 48.9974C54.0706 48.9974 55.0532 50.3633 55.7335 51.1027C57.6862 53.1703 60.1176 54.2355 62.5868 54.1102C63.96 54.035 64.9174 53.6841 65.7489 52.9323C67.0087 51.8044 66.9457 52.1929 66.9961 46.228C67.0339 43.3458 67.0087 40.7267 66.9583 40.4135C66.8827 39.8871 66.8449 39.837 66.6055 39.8997C63.7206 40.7017 60.5963 39.5613 58.8452 37.0801C58.0137 35.9147 57.6358 34.812 57.6358 33.5713C57.6358 32.7443 57.6988 32.5062 58.0767 31.7543C59.2105 29.4485 61.5664 28.3082 64.4261 28.6841C66.3662 28.9348 68.9866 29.9373 70.9141 31.1653C71.2794 31.4034 71.6321 31.5538 71.6825 31.4911C71.7329 31.441 73.6352 27.1177 75.8903 21.8796C79.7327 13.02 79.9846 12.3683 79.783 12.2054C79.3673 11.8921 77.9185 11.0651 76.9107 10.5513C69.9314 7.09265 55.3052 4.21045 45.063 4.2731C43.7276 4.28563 42.1907 4.33576 41.6237 4.39841Z" fill="#00529C"/>
<path d="M52.5588 12.7068C54.1587 14.574 55.5319 16.1153 55.6327 16.1404C55.8595 16.2031 56.6783 15.7519 57.283 15.2381C57.8122 14.7745 58.3287 13.9098 58.3287 13.4587C58.3287 13.2331 58.505 13.1579 59.6893 12.9199C60.4325 12.7695 61.1254 12.6066 61.2262 12.569C61.39 12.5188 57.4342 11.391 50.9966 9.66171L49.6613 9.2983L52.5588 12.7068Z" fill="#00529C"/>
<path d="M18.834 21.9298C18.4435 23.9348 18.4687 28.3333 18.8718 30.3008C19.7033 34.3985 21.7693 38.4712 25.007 42.4436C26.7833 44.6115 30.9659 48.6592 34.9594 52.0551C36.9751 53.7719 39.3687 55.8521 40.301 56.6917C44.8237 60.7644 46.7763 63.8847 46.5748 66.7293L46.5118 67.594L46.7763 67.2932C47.1669 66.8171 47.822 65.3133 48.0109 64.4737C48.2755 63.2582 48.1999 61.4035 47.822 59.9624C47.3684 58.2206 46.0331 55.589 44.7355 53.8847C42.6316 51.1153 40.6663 49.1855 35.0224 44.386C33.1201 42.7569 30.7517 40.7143 29.7817 39.8246C22.6386 33.396 19.5017 28.1328 19.1616 21.9925L19.086 20.614L18.834 21.9298Z" fill="#00529C"/>
<path d="M7.74778 73.0826C7.69739 73.446 7.0297 78.5964 6.24862 84.5237L4.83765 95.3007L8.2391 95.3383C10.1036 95.3508 11.6406 95.3508 11.6532 95.3383C11.6784 95.3132 11.8925 93.6591 12.1571 91.6666C12.409 89.6616 12.661 87.9949 12.6988 87.9448C12.7492 87.9072 15.0798 87.8445 17.8892 87.8069C23.2433 87.7443 23.974 87.6816 25.9897 87.0801C28.5471 86.3282 30.6383 84.6866 31.5958 82.6941C32.4398 80.9523 32.717 78.9598 32.3642 77.2931C31.8603 74.9373 29.8069 73.3834 26.3298 72.7317C25.2716 72.5438 24.1252 72.5062 16.4782 72.4561L7.83597 72.4059L7.74778 73.0826ZM21.3536 77.3182C23.0795 77.4561 23.9488 77.7192 24.5283 78.2455C24.9062 78.5839 24.9818 78.7593 25.0448 79.2982C25.2086 81.0525 24.1756 82.2556 22.0591 82.8069C21.5426 82.9322 20.245 83.0074 17.36 83.045L13.3539 83.1077V82.8195C13.3539 82.4561 13.9712 77.5688 14.0468 77.3433C14.1098 77.1553 19.1993 77.1302 21.3536 77.3182Z" fill="#00529C"/>
<path d="M34.7327 83.7971C33.9138 90.0628 33.2461 95.2257 33.2587 95.2758C33.2587 95.4387 49.2582 95.2883 50.455 95.1254C53.025 94.7495 54.2722 94.3485 55.9351 93.371C58.1523 92.0552 59.261 89.9124 59.261 86.9049C59.261 85.6643 59.2232 85.4387 58.8956 84.6492C57.9886 82.4813 55.5446 81.1154 51.8785 80.7144C51.1983 80.6392 48.729 80.5765 46.3858 80.5765C44.0426 80.5765 42.0899 80.5515 42.0647 80.5139C42.0143 80.4763 42.3671 77.5189 42.4427 77.2181C42.4553 77.2056 46.0331 77.1931 50.392 77.1931C56.1115 77.1931 58.3287 77.1555 58.3287 77.0552C58.3287 76.8297 58.8326 73.0201 58.8956 72.7069L58.9586 72.4312H47.5826H36.2066L34.7327 83.7971ZM50.014 85.2633C51.362 85.7018 51.9037 86.2532 51.9037 87.168C51.9037 88.559 51.0849 89.574 49.5731 90.1003C48.729 90.3886 48.5401 90.4011 44.6725 90.4512L40.6663 90.5013L40.7419 90.0126C40.7797 89.7495 40.9309 88.6342 41.0695 87.5314C41.208 86.4287 41.3592 85.3886 41.397 85.2382L41.46 84.9374L45.3906 84.9876C48.7164 85.0377 49.4345 85.0753 50.014 85.2633Z" fill="#00529C"/>
<path d="M62.486 72.6441C62.4734 72.7694 62.3474 73.8471 62.1837 75.025L61.8939 77.193H64.149C66.0513 77.193 66.3914 77.218 66.3914 77.3809C66.3914 77.4812 65.8875 81.4662 65.2576 86.2406C64.6403 91.0025 64.1238 95.0125 64.1238 95.1504C64.1238 95.3885 64.2371 95.3885 71.2794 95.3258C78.2839 95.2631 79.3295 95.2005 81.383 94.787C84.8348 94.0727 87.7576 92.4436 89.4205 90.2882C90.8063 88.4837 91.7385 85.9774 91.9401 83.4586C92.1291 81.1905 91.7259 78.7093 90.9575 77.3559C89.8992 75.5263 87.6064 73.8346 85.2632 73.1829C82.9829 72.5438 82.7184 72.5313 72.2873 72.4687C62.8766 72.4185 62.486 72.4185 62.486 72.6441ZM80.4382 77.5063C82.3404 77.9073 83.7136 78.9474 84.2931 80.4261C84.5325 81.0276 84.5829 81.3784 84.5829 82.6441C84.5829 85.0752 84.016 86.6667 82.6806 88.0326C81.7609 88.9599 80.8917 89.5238 79.7453 89.8997C78.2965 90.3759 77.3894 90.4762 74.3407 90.4762H71.5188L71.5944 90C71.6322 89.7494 72.0101 86.8296 72.4384 83.5213C72.8668 80.213 73.2447 77.4311 73.2699 77.3308C73.3455 77.0802 79.1406 77.2306 80.4382 77.5063Z" fill="#00529C"/>
</svg>
