<svg width="35" height="35" viewBox="0 0 35 35" fill="none" xmlns="http://www.w3.org/2000/svg">
<g clip-path="url(#clip0_343_4567)">
<path d="M18.9583 1.45834C18.9583 1.07157 19.112 0.700636 19.3855 0.427146C19.659 0.153655 20.0299 9.57539e-06 20.4167 9.57539e-06C24.2831 0.00425565 27.99 1.54207 30.7239 4.27606C33.4579 7.01004 34.9957 10.7169 35 14.5833C35 14.9701 34.8463 15.3411 34.5729 15.6145C34.2994 15.888 33.9284 16.0417 33.5417 16.0417C33.1549 16.0417 32.7839 15.888 32.5105 15.6145C32.237 15.3411 32.0833 14.9701 32.0833 14.5833C32.0798 11.4902 30.8496 8.52477 28.6624 6.3376C26.4752 4.15043 23.5098 2.92015 20.4167 2.91668C20.0299 2.91668 19.659 2.76303 19.3855 2.48954C19.112 2.21605 18.9583 1.84512 18.9583 1.45834ZM20.4167 8.75001C21.9638 8.75001 23.4475 9.36459 24.5414 10.4586C25.6354 11.5525 26.25 13.0362 26.25 14.5833C26.25 14.9701 26.4036 15.3411 26.6771 15.6145C26.9506 15.888 27.3215 16.0417 27.7083 16.0417C28.0951 16.0417 28.466 15.888 28.7395 15.6145C29.013 15.3411 29.1667 14.9701 29.1667 14.5833C29.1643 12.2634 28.2417 10.0392 26.6013 8.39872C24.9608 6.75828 22.7366 5.83566 20.4167 5.83334C20.0299 5.83334 19.659 5.98699 19.3855 6.26048C19.112 6.53397 18.9583 6.9049 18.9583 7.29168C18.9583 7.67845 19.112 8.04938 19.3855 8.32287C19.659 8.59636 20.0299 8.75001 20.4167 8.75001ZM33.6773 24.4111C34.5224 25.2585 34.997 26.4065 34.997 27.6033C34.997 28.8002 34.5224 29.9482 33.6773 30.7956L32.3502 32.3254C20.4064 43.7602 -8.65814 14.7029 2.6002 2.72126L4.27728 1.26293C5.12569 0.441414 6.26343 -0.0130439 7.44435 -0.00212711C8.62527 0.00878962 9.75441 0.484203 10.5875 1.32126C10.6327 1.36647 13.335 4.87668 13.335 4.87668C14.1368 5.71905 14.5832 6.83803 14.5813 8.00101C14.5794 9.164 14.1294 10.2815 13.3248 11.1213L11.636 13.2446C12.5706 15.5154 13.9447 17.5791 15.6793 19.3172C17.4139 21.0553 19.4748 22.4336 21.7437 23.3727L23.8802 21.6738C24.7201 20.8698 25.8374 20.4203 27 20.4187C28.1626 20.4171 29.2812 20.8634 30.1233 21.665C30.1233 21.665 33.6321 24.3658 33.6773 24.4111ZM31.6706 26.5315C31.6706 26.5315 28.1808 23.8467 28.1356 23.8015C27.8352 23.5036 27.4292 23.3364 27.0061 23.3364C26.583 23.3364 26.1771 23.5036 25.8767 23.8015C25.8373 23.8423 22.8958 26.1858 22.8958 26.1858C22.6976 26.3436 22.4617 26.447 22.2113 26.4859C21.961 26.5248 21.7048 26.4978 21.4681 26.4075C18.5288 25.3131 15.859 23.5998 13.6395 21.3837C11.4201 19.1675 9.70287 16.5002 8.60416 13.5625C8.50674 13.3225 8.47498 13.061 8.51214 12.8047C8.5493 12.5484 8.65405 12.3066 8.81561 12.1042C8.81561 12.1042 11.1592 9.16126 11.1985 9.12334C11.4964 8.82291 11.6636 8.41695 11.6636 7.99386C11.6636 7.57078 11.4964 7.16482 11.1985 6.86438C11.1533 6.82063 8.46853 3.32793 8.46853 3.32793C8.16359 3.0545 7.76562 2.90807 7.35618 2.91864C6.94675 2.92922 6.55686 3.096 6.26645 3.3848L4.58936 4.84313C-3.63855 14.7365 21.5483 38.5263 30.2181 30.3333L31.5467 28.8021C31.858 28.5137 32.045 28.1156 32.0681 27.6919C32.0912 27.2681 31.9487 26.852 31.6706 26.5315Z" fill="white"/>
</g>
<defs>
<clipPath id="clip0_343_4567">
<rect width="35" height="35" fill="white"/>
</clipPath>
</defs>
</svg>
