<svg width="35" height="35" viewBox="0 0 35 35" fill="none" xmlns="http://www.w3.org/2000/svg">
<g clip-path="url(#clip0_336_951)">
<path d="M10.2083 35C11.8192 35 13.125 33.6942 13.125 32.0833C13.125 30.4725 11.8192 29.1667 10.2083 29.1667C8.5975 29.1667 7.29167 30.4725 7.29167 32.0833C7.29167 33.6942 8.5975 35 10.2083 35Z" fill="white"/>
<path d="M24.7917 35C26.4025 35 27.7083 33.6942 27.7083 32.0833C27.7083 30.4725 26.4025 29.1667 24.7917 29.1667C23.1808 29.1667 21.875 30.4725 21.875 32.0833C21.875 33.6942 23.1808 35 24.7917 35Z" fill="white"/>
<path d="M34.5406 1.94833C34.2671 1.67494 33.8963 1.52135 33.5096 1.52135C33.1229 1.52135 32.752 1.67494 32.4785 1.94833L24.955 9.47917L22.6931 7.11813C22.5604 6.98005 22.4018 6.86946 22.2263 6.79268C22.0509 6.7159 21.862 6.67443 21.6705 6.67064C21.4791 6.66685 21.2887 6.70081 21.1103 6.77058C20.932 6.84036 20.7691 6.94458 20.631 7.07729C20.493 7.21001 20.3824 7.36863 20.3056 7.54408C20.2288 7.71954 20.1873 7.9084 20.1836 8.09988C20.1759 8.48659 20.3222 8.86051 20.5902 9.13938L22.944 11.5879C23.1948 11.8588 23.4979 12.076 23.835 12.2264C24.1722 12.3768 24.5363 12.4573 24.9054 12.4629H24.9535C25.3153 12.4641 25.6737 12.3934 26.0079 12.255C26.3421 12.1166 26.6455 11.9131 26.9004 11.6565L34.5406 4.01042C34.814 3.73694 34.9676 3.36607 34.9676 2.97938C34.9676 2.59268 34.814 2.22181 34.5406 1.94833Z" fill="white"/>
<path d="M31.9375 13.1483C31.7489 13.1143 31.5555 13.1177 31.3683 13.1584C31.1811 13.1991 31.0037 13.2763 30.8463 13.3856C30.689 13.4949 30.5547 13.6342 30.4511 13.7954C30.3476 13.9566 30.2768 14.1366 30.2429 14.3252L30.0562 15.3592C29.8743 16.3688 29.3434 17.2824 28.5562 17.9403C27.769 18.5982 26.7757 18.9585 25.7498 18.9583H7.90125L6.53042 7.29167H16.0417C16.4284 7.29167 16.7994 7.13802 17.0729 6.86453C17.3464 6.59104 17.5 6.22011 17.5 5.83333C17.5 5.44656 17.3464 5.07563 17.0729 4.80214C16.7994 4.52865 16.4284 4.375 16.0417 4.375H6.18625L6.125 3.86167C5.99932 2.79796 5.48779 1.81731 4.68736 1.10557C3.88692 0.393829 2.85319 0.00045622 1.78208 0L1.45833 0C1.07156 0 0.700626 0.153645 0.427136 0.427136C0.153645 0.700627 0 1.07156 0 1.45833C0 1.84511 0.153645 2.21604 0.427136 2.48953C0.700626 2.76302 1.07156 2.91667 1.45833 2.91667H1.78208C2.13928 2.91671 2.48403 3.04785 2.75096 3.28521C3.01788 3.52257 3.18842 3.84963 3.23021 4.20437L5.23688 21.2669C5.4452 23.0414 6.29778 24.6776 7.63278 25.865C8.96778 27.0524 10.6923 27.7084 12.479 27.7083H27.7083C28.0951 27.7083 28.466 27.5547 28.7395 27.2812C29.013 27.0077 29.1667 26.6368 29.1667 26.25C29.1667 25.8632 29.013 25.4923 28.7395 25.2188C28.466 24.9453 28.0951 24.7917 27.7083 24.7917H12.479C11.5741 24.7918 10.6914 24.5114 9.95256 23.9891C9.21368 23.4667 8.65496 22.7281 8.35333 21.875H25.7498C27.4594 21.8751 29.1147 21.2745 30.4264 20.1781C31.7382 19.0818 32.623 17.5594 32.9262 15.8769L33.1129 14.8415C33.1813 14.4611 33.096 14.0691 32.8756 13.7517C32.6552 13.4342 32.3178 13.2172 31.9375 13.1483Z" fill="white"/>
</g>
<defs>
<clipPath id="clip0_336_951">
<rect width="35" height="35" fill="white"/>
</clipPath>
</defs>
</svg>
