<svg width="35" height="35" viewBox="0 0 35 35" fill="none" xmlns="http://www.w3.org/2000/svg">
<g clip-path="url(#clip0_336_956)">
<path d="M33.2004 6.65875C32.6675 6.43677 32.0806 6.37842 31.5145 6.49113C30.9483 6.60385 30.4285 6.88252 30.0213 7.29167L26.25 11.0629L19.5621 4.375C19.0151 3.82821 18.2734 3.52104 17.5 3.52104C16.7266 3.52104 15.9849 3.82821 15.4379 4.375L8.75 11.0629L4.97875 7.29167C4.57085 6.88389 4.05121 6.6062 3.48551 6.49371C2.91981 6.38123 2.33347 6.43898 1.80059 6.65969C1.26772 6.88039 0.812241 7.25413 0.491745 7.73366C0.171249 8.21319 0.000123154 8.77698 0 9.35375L0 24.7917C0.00231563 26.7248 0.771286 28.5781 2.13824 29.9451C3.50519 31.312 5.35851 32.081 7.29167 32.0833H27.7083C29.6415 32.081 31.4948 31.312 32.8618 29.9451C34.2287 28.5781 34.9977 26.7248 35 24.7917V9.35375C35.0001 8.77693 34.8293 8.21302 34.5089 7.73332C34.1886 7.25362 33.7333 6.87967 33.2004 6.65875ZM32.0833 24.7917C32.0833 25.952 31.6224 27.0648 30.8019 27.8853C29.9815 28.7057 28.8687 29.1667 27.7083 29.1667H7.29167C6.13134 29.1667 5.01855 28.7057 4.19807 27.8853C3.3776 27.0648 2.91667 25.952 2.91667 24.7917V9.35375L7.71896 14.156C7.99244 14.4294 8.3633 14.583 8.75 14.583C9.1367 14.583 9.50756 14.4294 9.78104 14.156L17.5 6.43708L25.219 14.156C25.4924 14.4294 25.8633 14.583 26.25 14.583C26.6367 14.583 27.0076 14.4294 27.281 14.156L32.0833 9.35375V24.7917Z" fill="white"/>
</g>
<defs>
<clipPath id="clip0_336_956">
<rect width="35" height="35" fill="white"/>
</clipPath>
</defs>
</svg>
