<svg width="35" height="35" viewBox="0 0 35 35" fill="none" xmlns="http://www.w3.org/2000/svg">
<g clip-path="url(#clip0_336_983)">
<path d="M5.8333 8.75C5.25836 8.75151 4.68882 8.63899 4.15764 8.41896C3.62646 8.19893 3.14419 7.87575 2.73872 7.46812L0.487051 5.46437C0.198131 5.20678 0.0233721 4.84497 0.00121939 4.45853C-0.0209333 4.07208 0.111335 3.69267 0.368926 3.40375C0.626518 3.11483 0.988332 2.94007 1.37477 2.91792C1.76122 2.89576 2.14063 3.02803 2.42955 3.28562L4.74101 5.34771C4.87333 5.49631 5.03467 5.61625 5.21508 5.70017C5.39549 5.78409 5.59117 5.8302 5.79007 5.83566C5.98897 5.84112 6.18689 5.80583 6.37164 5.73194C6.55638 5.65806 6.72406 5.54715 6.86434 5.40604L12.1202 0.402498C12.4028 0.150893 12.7721 0.0189846 13.1502 0.0346354C13.5283 0.0502863 13.8854 0.212271 14.1463 0.486374C14.4072 0.760478 14.5513 1.12524 14.5482 1.50362C14.5451 1.88199 14.395 2.24435 14.1298 2.51417L8.8958 7.49292C8.49297 7.8934 8.01515 8.21056 7.48966 8.42626C6.96418 8.64196 6.40133 8.75197 5.8333 8.75ZM35 5.83333C35 5.44656 34.8463 5.07562 34.5728 4.80213C34.2993 4.52864 33.9284 4.375 33.5416 4.375H18.9583C18.5715 4.375 18.2006 4.52864 17.9271 4.80213C17.6536 5.07562 17.5 5.44656 17.5 5.83333C17.5 6.22011 17.6536 6.59104 17.9271 6.86453C18.2006 7.13802 18.5715 7.29167 18.9583 7.29167H33.5416C33.9284 7.29167 34.2993 7.13802 34.5728 6.86453C34.8463 6.59104 35 6.22011 35 5.83333ZM8.8958 19.1596L14.1298 14.1808C14.2758 14.0508 14.3943 13.8927 14.478 13.7159C14.5617 13.5391 14.609 13.3474 14.6171 13.1519C14.6252 12.9565 14.5939 12.7615 14.5251 12.5784C14.4563 12.3953 14.3513 12.2279 14.2165 12.0863C14.0816 11.9446 13.9197 11.8315 13.7402 11.7537C13.5608 11.6758 13.3675 11.6349 13.1719 11.6333C12.9764 11.6317 12.7825 11.6695 12.6018 11.7444C12.4211 11.8192 12.2573 11.9297 12.1202 12.0692L6.87018 17.0727C6.59256 17.3382 6.22325 17.4863 5.83913 17.4863C5.45502 17.4863 5.08571 17.3382 4.80809 17.0727L2.48934 14.7612C2.2143 14.4956 1.84592 14.3486 1.46355 14.3519C1.08118 14.3553 0.715411 14.5086 0.445024 14.779C0.174637 15.0494 0.021266 15.4152 0.0179433 15.7975C0.0146206 16.1799 0.161612 16.5483 0.42726 16.8233L2.73872 19.1348C3.55491 19.9512 4.66068 20.4119 5.81507 20.4165C6.96946 20.4212 8.0789 19.9694 8.90163 19.1596H8.8958ZM35 17.5C35 17.1132 34.8463 16.7423 34.5728 16.4688C34.2993 16.1953 33.9284 16.0417 33.5416 16.0417H18.9583C18.5715 16.0417 18.2006 16.1953 17.9271 16.4688C17.6536 16.7423 17.5 17.1132 17.5 17.5C17.5 17.8868 17.6536 18.2577 17.9271 18.5312C18.2006 18.8047 18.5715 18.9583 18.9583 18.9583H33.5416C33.9284 18.9583 34.2993 18.8047 34.5728 18.5312C34.8463 18.2577 35 17.8868 35 17.5ZM8.8958 30.8263L14.1239 25.8475C14.27 25.7174 14.3884 25.5593 14.4722 25.3826C14.5559 25.2058 14.6032 25.014 14.6113 24.8186C14.6194 24.6232 14.5881 24.4281 14.5193 24.2451C14.4504 24.062 14.3455 23.8946 14.2106 23.7529C14.0758 23.6112 13.9138 23.4981 13.7344 23.4203C13.555 23.3425 13.3617 23.3016 13.1661 23.3C12.9705 23.2984 12.7766 23.3362 12.5959 23.411C12.4153 23.4859 12.2515 23.5964 12.1143 23.7358L6.86434 28.7394C6.72406 28.8805 6.55638 28.9914 6.37164 29.0653C6.18689 29.1392 5.98897 29.1745 5.79007 29.169C5.59117 29.1635 5.39549 29.1174 5.21508 29.0335C5.03467 28.9496 4.87333 28.8296 4.74101 28.681L2.42955 26.619C2.14063 26.3614 1.76122 26.2291 1.37477 26.2513C0.988332 26.2734 0.626518 26.4482 0.368926 26.7371C0.111335 27.026 -0.0209333 27.4054 0.00121939 27.7919C0.0233721 28.1783 0.198131 28.5401 0.487051 28.7977L2.73872 30.8015C3.55491 31.6178 4.66068 32.0785 5.81507 32.0832C6.96946 32.0878 8.0789 31.636 8.90163 30.8263H8.8958ZM35 29.1667C35 28.7799 34.8463 28.409 34.5728 28.1355C34.2993 27.862 33.9284 27.7083 33.5416 27.7083H18.9583C18.5715 27.7083 18.2006 27.862 17.9271 28.1355C17.6536 28.409 17.5 28.7799 17.5 29.1667C17.5 29.5534 17.6536 29.9244 17.9271 30.1979C18.2006 30.4714 18.5715 30.625 18.9583 30.625H33.5416C33.9284 30.625 34.2993 30.4714 34.5728 30.1979C34.8463 29.9244 35 29.5534 35 29.1667Z" fill="white"/>
</g>
<defs>
<clipPath id="clip0_336_983">
<rect width="35" height="35" fill="white"/>
</clipPath>
</defs>
</svg>
