<svg width="35" height="35" viewBox="0 0 35 35" fill="none" xmlns="http://www.w3.org/2000/svg">
<g clip-path="url(#clip0_336_962)">
<path d="M17.5 8.75C16.3463 8.75 15.2185 9.09212 14.2592 9.73309C13.2999 10.3741 12.5522 11.2851 12.1107 12.351C11.6692 13.4169 11.5537 14.5898 11.7788 15.7214C12.0038 16.8529 12.5594 17.8923 13.3752 18.7081C14.191 19.5239 15.2304 20.0795 16.362 20.3046C17.4935 20.5297 18.6664 20.4141 19.7323 19.9726C20.7982 19.5311 21.7093 18.7834 22.3502 17.8242C22.9912 16.8649 23.3333 15.7371 23.3333 14.5833C23.3333 13.0362 22.7188 11.5525 21.6248 10.4585C20.5308 9.36458 19.0471 8.75 17.5 8.75ZM17.5 17.5C16.9231 17.5 16.3592 17.3289 15.8796 17.0085C15.3999 16.688 15.0261 16.2324 14.8054 15.6995C14.5846 15.1665 14.5268 14.5801 14.6394 14.0143C14.7519 13.4485 15.0297 12.9288 15.4376 12.5209C15.8455 12.113 16.3652 11.8352 16.931 11.7227C17.4968 11.6102 18.0832 11.6679 18.6162 11.8887C19.1491 12.1094 19.6046 12.4833 19.9251 12.9629C20.2456 13.4426 20.4167 14.0065 20.4167 14.5833C20.4167 15.3569 20.1094 16.0987 19.5624 16.6457C19.0154 17.1927 18.2735 17.5 17.5 17.5Z" fill="white"/>
<path d="M17.5 35.0001C16.272 35.0064 15.0604 34.7184 13.9666 34.1602C12.8727 33.602 11.9286 32.7898 11.2131 31.7917C5.65541 24.1253 2.83646 18.362 2.83646 14.6607C2.83646 10.7717 4.38136 7.04196 7.13131 4.29201C9.88126 1.54207 13.611 -0.00283813 17.5 -0.00283813C21.389 -0.00283813 25.1187 1.54207 27.8687 4.29201C30.6186 7.04196 32.1635 10.7717 32.1635 14.6607C32.1635 18.362 29.3446 24.1253 23.7869 31.7917C23.0714 32.7898 22.1273 33.602 21.0334 34.1602C19.9396 34.7184 18.728 35.0064 17.5 35.0001ZM17.5 3.1807C14.4556 3.18418 11.5369 4.3951 9.38419 6.54781C7.23147 8.70052 6.02055 11.6192 6.01708 14.6636C6.01708 17.5949 8.77771 23.0155 13.7885 29.9265C14.2139 30.5125 14.772 30.9894 15.4171 31.3182C16.0622 31.647 16.7759 31.8184 17.5 31.8184C18.2241 31.8184 18.9378 31.647 19.5829 31.3182C20.228 30.9894 20.7861 30.5125 21.2115 29.9265C26.2223 23.0155 28.9829 17.5949 28.9829 14.6636C28.9794 11.6192 27.7685 8.70052 25.6158 6.54781C23.4631 4.3951 20.5444 3.18418 17.5 3.1807Z" fill="white"/>
</g>
<defs>
<clipPath id="clip0_336_962">
<rect width="35" height="35" fill="white"/>
</clipPath>
</defs>
</svg>
