<svg width="37" height="37" viewBox="0 0 37 37" fill="none" xmlns="http://www.w3.org/2000/svg">
<g clip-path="url(#clip0_368_2)">
<path d="M29.2917 7.70833H26.2083V6.16667C26.2083 4.94004 25.7211 3.76365 24.8537 2.8963C23.9863 2.02894 22.81 1.54167 21.5833 1.54167H4.625C3.39837 1.54167 2.22199 2.02894 1.35463 2.8963C0.487275 3.76365 0 4.94004 0 6.16667L0 29.2917H3.14654C3.10687 29.5467 3.08575 29.8044 3.08333 30.0625C3.08333 31.4936 3.65182 32.866 4.66374 33.8779C5.67565 34.8899 7.0481 35.4583 8.47917 35.4583C9.91023 35.4583 11.2827 34.8899 12.2946 33.8779C13.3065 32.866 13.875 31.4936 13.875 30.0625C13.8726 29.8044 13.8515 29.5467 13.8118 29.2917H23.1882C23.1485 29.5467 23.1274 29.8044 23.125 30.0625C23.125 31.4936 23.6935 32.866 24.7054 33.8779C25.7173 34.8899 27.0898 35.4583 28.5208 35.4583C29.9519 35.4583 31.3243 34.8899 32.3363 33.8779C33.3482 32.866 33.9167 31.4936 33.9167 30.0625C33.9142 29.8044 33.8931 29.5467 33.8535 29.2917H37V15.4167C36.9976 13.373 36.1846 11.4138 34.7396 9.96876C33.2945 8.52369 31.3353 7.71078 29.2917 7.70833ZM29.2917 10.7917C30.5183 10.7917 31.6947 11.2789 32.562 12.1463C33.4294 13.0137 33.9167 14.19 33.9167 15.4167V16.9583H26.2083V10.7917H29.2917ZM10.7917 30.0625C10.7917 30.6758 10.548 31.264 10.1144 31.6977C9.68067 32.1314 9.09248 32.375 8.47917 32.375C7.86585 32.375 7.27766 32.1314 6.84398 31.6977C6.4103 31.264 6.16667 30.6758 6.16667 30.0625C6.16761 29.799 6.21619 29.5379 6.31004 29.2917H10.6483C10.7421 29.5379 10.7907 29.799 10.7917 30.0625ZM23.125 26.2083H3.08333V6.16667C3.08333 5.75779 3.24576 5.36566 3.53488 5.07655C3.824 4.78743 4.21612 4.625 4.625 4.625H21.5833C21.9922 4.625 22.3843 4.78743 22.6735 5.07655C22.9626 5.36566 23.125 5.75779 23.125 6.16667V26.2083ZM30.8333 30.0625C30.8333 30.6758 30.5897 31.264 30.156 31.6977C29.7223 32.1314 29.1341 32.375 28.5208 32.375C27.9075 32.375 27.3193 32.1314 26.8856 31.6977C26.452 31.264 26.2083 30.6758 26.2083 30.0625C26.209 29.799 26.2576 29.5378 26.3517 29.2917H30.69C30.7841 29.5378 30.8327 29.799 30.8333 30.0625ZM26.2083 26.2083V20.0417H33.9167V26.2083H26.2083Z" fill="white"/>
</g>
<defs>
<clipPath id="clip0_368_2">
<rect width="37" height="37" fill="white"/>
</clipPath>
</defs>
</svg>
