<svg width="35" height="35" viewBox="0 0 35 35" fill="none" xmlns="http://www.w3.org/2000/svg">
<g clip-path="url(#clip0_336_958)">
<path d="M34.7608 12.8246C34.4625 11.8751 33.8666 11.0467 33.0611 10.4621C32.2556 9.87752 31.2834 9.56765 30.2881 9.57834H23.9167L21.9815 3.54667C21.6771 2.59724 21.0791 1.76898 20.2737 1.18135C19.4683 0.593716 18.497 0.277069 17.5 0.277069C16.503 0.277069 15.5317 0.593716 14.7263 1.18135C13.9209 1.76898 13.3229 2.59724 13.0185 3.54667L11.0833 9.57834H4.71188C3.71984 9.57975 2.75362 9.89463 1.95123 10.478C1.14883 11.0614 0.551316 11.8834 0.244017 12.8266C-0.063282 13.7699 -0.0646421 14.7861 0.240131 15.7302C0.544904 16.6742 1.14022 17.4978 1.94105 18.0833L7.12688 21.875L5.15522 27.981C4.83659 28.9281 4.83255 29.9527 5.14371 30.9022C5.45487 31.8517 6.06455 32.6752 6.88188 33.25C7.68521 33.8432 8.6587 34.161 9.65731 34.156C10.6559 34.151 11.6262 33.8235 12.4235 33.2223L17.5 29.486L22.5779 33.2179C23.3798 33.8077 24.348 34.1281 25.3435 34.133C26.3389 34.1378 27.3102 33.8269 28.1178 33.2449C28.9254 32.6629 29.5276 31.8399 29.8379 30.894C30.1482 29.9482 30.1506 28.9283 29.8448 27.981L27.8731 21.875L33.0648 18.0833C33.8748 17.5052 34.4771 16.6816 34.7825 15.7345C35.088 14.7873 35.0804 13.767 34.7608 12.8246ZM31.344 15.7281L25.3006 20.1454C25.0524 20.3265 24.8677 20.5814 24.7729 20.8736C24.6781 21.1659 24.678 21.4806 24.7727 21.7729L27.0696 28.875C27.1858 29.2352 27.1848 29.623 27.0668 29.9826C26.9487 30.3422 26.7196 30.6552 26.4125 30.8764C26.1054 31.0976 25.736 31.2157 25.3575 31.2138C24.979 31.2119 24.6109 31.09 24.306 30.8656L18.3633 26.4906C18.113 26.3068 17.8106 26.2076 17.5 26.2076C17.1894 26.2076 16.887 26.3068 16.6367 26.4906L10.694 30.8656C10.3893 31.093 10.0201 31.2174 9.63998 31.2209C9.25983 31.2243 8.88846 31.1066 8.57972 30.8848C8.27097 30.663 8.04089 30.3486 7.92283 29.9873C7.80478 29.6259 7.80488 29.2363 7.92313 28.875L10.2273 21.7729C10.322 21.4806 10.3219 21.1659 10.2271 20.8736C10.1323 20.5814 9.94761 20.3265 9.69938 20.1454L3.65605 15.7281C3.3517 15.5053 3.12556 15.192 3.00992 14.8329C2.89429 14.4739 2.89507 14.0875 3.01217 13.7289C3.12927 13.3703 3.35669 13.0579 3.66194 12.8363C3.9672 12.6147 4.33467 12.4953 4.71188 12.495H12.1494C12.4581 12.495 12.7589 12.397 13.0084 12.2151C13.2579 12.0332 13.4432 11.7769 13.5377 11.4829L15.7981 4.43771C15.9142 4.07719 16.1416 3.76278 16.4477 3.53974C16.7538 3.3167 17.1227 3.19653 17.5015 3.19653C17.8802 3.19653 18.2492 3.3167 18.5553 3.53974C18.8613 3.76278 19.0888 4.07719 19.2048 4.43771L21.4652 11.4829C21.5597 11.7769 21.745 12.0332 21.9945 12.2151C22.244 12.397 22.5448 12.495 22.8535 12.495H30.291C30.6683 12.4953 31.0357 12.6147 31.341 12.8363C31.6462 13.0579 31.8737 13.3703 31.9908 13.7289C32.1079 14.0875 32.1086 14.4739 31.993 14.8329C31.8774 15.192 31.6512 15.5053 31.3469 15.7281H31.344Z" fill="white"/>
</g>
<defs>
<clipPath id="clip0_336_958">
<rect width="35" height="35" fill="white"/>
</clipPath>
</defs>
</svg>
