<svg width="34" height="20" viewBox="0 0 34 20" fill="none" xmlns="http://www.w3.org/2000/svg">
<path fill-rule="evenodd" clip-rule="evenodd" d="M16.2389 19.0783H18.1786C18.1786 19.0783 18.7987 18.9835 19.1008 18.6677C19.4028 18.3678 19.4028 17.8625 19.4028 17.8625C19.4028 17.8625 19.4028 15.2257 20.6271 14.8152C21.8513 14.4047 23.3777 17.3573 25.0153 18.4625C26.2395 19.2677 27.1617 19.173 27.1617 19.173L31.5499 19.0783C31.5499 19.0783 33.903 18.9835 32.7742 17.152C32.6788 16.9467 32.1541 15.8257 29.4989 13.3942C26.7483 10.8522 27.1458 11.2627 30.4211 6.90496C32.4562 4.17347 33.2829 2.5472 32.9808 1.8367C32.7742 1.12619 31.2478 1.33145 31.2478 1.33145H26.2395C26.2395 1.33145 25.8262 1.23672 25.6195 1.42619C25.3174 1.63144 25.2061 1.93143 25.2061 1.93143C25.2061 1.93143 24.3952 3.95242 23.3618 5.78394C21.12 9.54172 20.2932 9.74697 19.8957 9.43119C19.0849 8.92595 19.2756 7.29968 19.2756 6.08393C19.2756 2.43668 19.7844 1.01567 18.2581 0.605159C17.7493 0.510425 17.3359 0.399902 15.905 0.399902C14.172 0.399902 12.6297 0.399903 11.8189 0.810416C11.1988 1.11041 10.8013 1.72618 11.1034 1.72618C11.4055 1.82091 12.121 1.93143 12.5343 2.43668C13.0431 3.14718 13.0431 4.66292 13.0431 4.66292C13.0431 4.66292 13.3452 8.92595 12.3276 9.43119C11.6122 9.84171 10.69 9.02068 8.7503 5.67342C7.73275 3.95242 7.01728 2.02617 7.01728 2.02617C7.01728 2.02617 6.81059 1.61565 6.6039 1.52092C6.31771 1.33145 5.92023 1.22093 5.92023 1.22093H1.21403C1.21403 1.22093 0.498566 1.22093 0.291875 1.52092C0.0851839 1.82091 0.291875 2.32616 0.291875 2.32616C0.291875 2.32616 3.96461 10.9469 8.16203 15.21C11.9461 19.2835 16.2389 19.0783 16.2389 19.0783Z" fill="white"/>
</svg>
